<svg xmlns="http://www.w3.org/2000/svg" viewBox="0 0 31.42 26.73"><title>Datový zdroj 3</title><g id="Vrstva_2" data-name="Vrstva 2"><g id="Vrstva_3" data-name="Vrstva 3"><path d="M6.29,10.05a9.32,9.32,0,0,1-3.73,4.48,5.78,5.78,0,0,1,1.51-.41,6,6,0,0,1,1.6,0c.17,0-.2,2-.2,2s2.29-.53,2.44-.32a8.63,8.63,0,0,1,.61,1.92,8.33,8.33,0,0,1,3.57,0l.73,1.21a9.86,9.86,0,0,1,1.12-.31,3.35,3.35,0,0,1,1.69.09A22.46,22.46,0,0,1,18.51,20a7.08,7.08,0,0,1-1.85-3.74l1.57.82a3.71,3.71,0,0,1,.45-3c.75-.78,2.63-.56,4.29-.67s2-2.19,2-2.19-5.32-.92-5.83-.81-1.1.2-1.22-.2c-.13-.75,6.46-4.65,6.63-5.43s-1.88-2.3-1.88-2.3S18.17,4.8,17.42,4.83a6.7,6.7,0,0,1-2.16-.62,22.3,22.3,0,0,0-4.4,1.88s-2.18-6-2.6-6S5,4.89,6.34,9.63Z"/><path d="M6.29,10.05A8.18,8.18,0,0,1,4.8,12.6a12.53,12.53,0,0,1-2.22,2l0-.06a6.24,6.24,0,0,1,1.25-.39A9.63,9.63,0,0,1,5.1,14h.33l.16,0h.08a.15.15,0,0,1,.09.11,3,3,0,0,1,0,.67c-.05.43-.12.86-.19,1.29L5.45,16l1.11-.23a8.09,8.09,0,0,1,1.13-.16h.16s.17.09.17.12a1.11,1.11,0,0,1,.13.27,4.3,4.3,0,0,1,.2.54c.11.36.21.72.3,1.09l-.16-.1a8.28,8.28,0,0,1,3.64-.06h.07l.05.07L13,18.8l-.25-.09a11.78,11.78,0,0,1,1.5-.4,3.72,3.72,0,0,1,1.59.18,20.41,20.41,0,0,1,2.81,1.19l-.36.48A7.09,7.09,0,0,1,17,18.37a7.65,7.65,0,0,1-.44-1,6,6,0,0,1-.27-1.09l-.11-.7.65.32,1.58.79-.55.52a2.69,2.69,0,0,1-.15-.79,4.33,4.33,0,0,1,0-.72,3.61,3.61,0,0,1,.36-1.47,2,2,0,0,1,.57-.65,2.31,2.31,0,0,1,.74-.33,6,6,0,0,1,1.42-.2l1.34,0a4.81,4.81,0,0,0,1.18-.12,2.24,2.24,0,0,0,1.17-1.72l.4.55L22,11.24,20.53,11l-.72-.09-.35,0-.23,0h-.05a6.31,6.31,0,0,1-.71.06,1.34,1.34,0,0,1-.49-.07.81.81,0,0,1-.52-.52l0-.06h0a.76.76,0,0,1,0-.31.89.89,0,0,1,.08-.17,1.27,1.27,0,0,1,.15-.21c.1-.12.2-.22.29-.31s.39-.34.59-.5c.39-.31.79-.6,1.19-.89l2.4-1.68c.4-.28.79-.56,1.17-.85.19-.15.37-.29.54-.44l.22-.22c.06-.1,0,0,0,0a2.12,2.12,0,0,0-.64-1,8.5,8.5,0,0,0-1-.94l.39,0c-1.21.59-2.42,1.17-3.65,1.71l-.95.38-.5.16a1.37,1.37,0,0,1-.6,0,7.6,7.6,0,0,1-2-.65h.16a21.65,21.65,0,0,0-4.39,1.79l-.16.08-.06-.16c-.46-1.32-.93-2.63-1.43-3.92A14.73,14.73,0,0,0,8.42.34.72.72,0,0,0,8.28.15s0,0,0,0-.05,0-.08.06a2.5,2.5,0,0,0-.31.4,8,8,0,0,0-.51.9,13.41,13.41,0,0,0-1.2,4,10.7,10.7,0,0,0,.21,4.14h0Zm0,0,0-.42h0a10.57,10.57,0,0,1-.27-4.15,13.32,13.32,0,0,1,1.16-4A8.4,8.4,0,0,1,7.74.55,3.11,3.11,0,0,1,8.06.13.31.31,0,0,1,8.18,0l.09,0,.09,0a.9.9,0,0,1,.18.23,17.17,17.17,0,0,1,.9,1.89C10,3.44,10.5,4.74,11,6L10.78,6a22.39,22.39,0,0,1,4.41-2l.08,0,.08,0a7.19,7.19,0,0,0,1.84.56.88.88,0,0,0,.4,0c.14,0,.29-.1.44-.16s.6-.26.9-.4c1.2-.56,2.39-1.18,3.56-1.81l.2-.1.18.14a9.87,9.87,0,0,1,1.17,1,6.14,6.14,0,0,1,.53.59,1.71,1.71,0,0,1,.38.87A.82.82,0,0,1,24.9,5a1.33,1.33,0,0,1-.16.26c-.1.12-.2.21-.29.31s-.39.33-.59.49c-.39.31-.78.6-1.18.89L20.31,8.64c-.39.29-.78.57-1.15.87-.18.15-.36.3-.52.46a1.42,1.42,0,0,0-.21.22.35.35,0,0,0-.06.09h0a.28.28,0,0,0,0-.13v-.07s-.08-.1-.07-.08h.17a6.17,6.17,0,0,0,.62-.07h0a2.92,2.92,0,0,1,.5,0l.38,0,.75.09,1.47.2,2.91.5.49.08-.1.47a4,4,0,0,1-.56,1.42,2.47,2.47,0,0,1-1.24,1,4.77,4.77,0,0,1-1.48.16l-1.32,0c-.85,0-1.75.13-2,.7a3,3,0,0,0-.28,1.11c0,.2,0,.41,0,.61a3.45,3.45,0,0,0,.07.52l.3,1L18,17.39l-1.55-.84.54-.38a5.76,5.76,0,0,0,.22,1,5.36,5.36,0,0,0,.36.94,6.22,6.22,0,0,0,1.12,1.66l1.21,1.33-1.58-.84A21.07,21.07,0,0,0,15.67,19a3.05,3.05,0,0,0-1.37-.2,10.62,10.62,0,0,0-1.41.33l-.18,0L12.64,19l-.71-1.22.11.08a8.21,8.21,0,0,0-3.49-.05l-.13,0,0-.13c-.07-.36-.15-.72-.25-1.08-.05-.18-.11-.36-.17-.53a1.67,1.67,0,0,0-.12-.23c0-.06,0,0,0,0H7.68a13,13,0,0,0-2.2.34l-.1,0,0-.1c.08-.43.16-.86.21-1.28a2.71,2.71,0,0,0,0-.63s0,0,0,0l-.08,0-.15,0-.32,0c-.43,0-.87,0-1.29.08a6.59,6.59,0,0,0-1.24.38l-.31.12.27-.19A9.44,9.44,0,0,0,6.29,10.05Z"/><path d="M.46,25.51C1.6,24.88,3,21,3,21a4.06,4.06,0,0,1-2,.49c2.4-1.62,2.49-3.23,2.49-3.23a5.24,5.24,0,0,1-2.83-.09,4.5,4.5,0,0,0,2.64-3.08s3.52,3.58,6.74,4.59a19.38,19.38,0,0,0,6.67.69,6.78,6.78,0,0,0,3,4.39,8,8,0,0,1-3-.87,8.29,8.29,0,0,0,4.68,2.86"/><path d="M.46,25.51a3.08,3.08,0,0,0,.85-1c.23-.38.43-.77.62-1.16a25.75,25.75,0,0,0,1-2.43l.15.14a5.56,5.56,0,0,1-1,.39A3.48,3.48,0,0,1,1,21.61l-.4,0L1,21.36A7.42,7.42,0,0,0,2.47,20,4.67,4.67,0,0,0,3,19.14a2.78,2.78,0,0,0,.3-.91l.28.18a3,3,0,0,1-1.51.21,8,8,0,0,1-1.46-.26L0,18.19.61,18a3.94,3.94,0,0,0,1.6-1.16A4.7,4.7,0,0,0,3.1,15l.1-.4.29.28a26.87,26.87,0,0,0,2.82,2.4,15.83,15.83,0,0,0,3.16,1.89A14.23,14.23,0,0,0,13,20a21.68,21.68,0,0,0,3.69.11l.2,0,0,.2a5.92,5.92,0,0,0,1,2.4,7.76,7.76,0,0,0,1.86,1.89l.46.33-.56-.07a10.6,10.6,0,0,1-1.57-.3A4.77,4.77,0,0,1,16.66,24l.13-.14a8.17,8.17,0,0,0,4.61,2.92,7.46,7.46,0,0,1-2.61-1,8.49,8.49,0,0,1-2.15-1.81l-.42-.5.55.36a4.94,4.94,0,0,0,1.43.55,11.35,11.35,0,0,0,1.53.25l-.1.27a7.89,7.89,0,0,1-2-1.93,6.41,6.41,0,0,1-1.11-2.56l.22.18A19.88,19.88,0,0,1,13,20.49a15,15,0,0,1-3.7-.86A15.23,15.23,0,0,1,6,17.7a28,28,0,0,1-2.86-2.47l.39-.12a4.75,4.75,0,0,1-1,2A4.14,4.14,0,0,1,.77,18.35l0-.41a7.87,7.87,0,0,0,1.37.25,2.69,2.69,0,0,0,1.31-.13l.33-.14,0,.33a3,3,0,0,1-.37,1.06,4.9,4.9,0,0,1-.62.89,7.89,7.89,0,0,1-1.61,1.39L1,21.33a3.32,3.32,0,0,0,1-.11,6.44,6.44,0,0,0,1-.34l.25-.11-.1.25A26,26,0,0,1,2,23.42c-.21.39-.43.77-.67,1.14A3.26,3.26,0,0,1,.46,25.51Z"/><line x1="26.2" y1="3.99" x2="29.71" y2="1.25"/><path d="M26.17,4c.49-.57,1-1.12,1.54-1.65a3.48,3.48,0,0,1,.82-.76,2.55,2.55,0,0,1,1.15-.33l.06.08a2.46,2.46,0,0,1-.6,1,3.71,3.71,0,0,1-.94.61c-.64.38-1.3.74-2,1.09Z"/><line x1="26.9" y1="6.89" x2="31.35" y2="6.09"/><path d="M26.89,6.84c.72-.28,1.44-.52,2.17-.74a3.54,3.54,0,0,1,1.09-.3A2.64,2.64,0,0,1,31.34,6l0,.1a2.49,2.49,0,0,1-1,.64,3.56,3.56,0,0,1-1.13.1c-.76,0-1.52.07-2.29.06Z"/><line x1="27.03" y1="9.86" x2="31.4" y2="11.17"/><path d="M27,9.82c.77.08,1.54.18,2.29.31a3.78,3.78,0,0,1,1.12.23,2.74,2.74,0,0,1,1,.76l0,.1a2.6,2.6,0,0,1-1.22.1,3.79,3.79,0,0,1-1.07-.42c-.7-.3-1.4-.63-2.08-1Z"/></g></g></svg>