<?xml version="1.0" encoding="UTF-8" standalone="no"?>
<!-- Created with Inkscape (http://www.inkscape.org/) -->

<svg
   width="196.38901mm"
   height="190.85896mm"
   viewBox="0 0 196.38901 190.85896"
   version="1.1"
   id="svg1"
   xml:space="preserve"
   inkscape:version="1.4.3 (0d15f75042, 2025-12-25)"
   sodipodi:docname="NyarchLogo.svg"
   inkscape:export-batch-name="NyarchLogo"
   xmlns:inkscape="http://www.inkscape.org/namespaces/inkscape"
   xmlns:sodipodi="http://sodipodi.sourceforge.net/DTD/sodipodi-0.dtd"
   xmlns="http://www.w3.org/2000/svg"
   xmlns:svg="http://www.w3.org/2000/svg"><sodipodi:namedview
     id="namedview1"
     pagecolor="#ffffff"
     bordercolor="#999999"
     borderopacity="1"
     inkscape:showpageshadow="2"
     inkscape:pageopacity="0"
     inkscape:pagecheckerboard="0"
     inkscape:deskcolor="#d1d1d1"
     inkscape:document-units="mm"
     inkscape:zoom="1.3968575"
     inkscape:cx="546.94199"
     inkscape:cy="462.46666"
     inkscape:window-width="1920"
     inkscape:window-height="995"
     inkscape:window-x="0"
     inkscape:window-y="0"
     inkscape:window-maximized="1"
     inkscape:current-layer="svg1" /><defs
     id="defs1"><inkscape:path-effect
       effect="fillet_chamfer"
       id="path-effect14"
       is_visible="true"
       lpeversion="1"
       nodesatellites_param="F,0,0,1,0,0,0,1 @ F,0,0,1,0,0,0,1 @ F,0,0,1,0,0,0,1 @ F,0,0,1,0,0,0,1 @ F,0,0,1,0,0,0,1 @ F,0,0,1,0,0,0,1 @ F,0,0,1,0,0,0,1 @ F,0,0,1,0,0,0,1 @ F,0,0,1,0,0,0,1 @ F,0,0,1,0,0,0,1 @ F,0,0,1,0,0,0,1 @ F,0,0,1,0,0,0,1 @ F,0,0,1,0,6.1885436,0,1 @ F,0,0,1,0,0,0,1 @ F,0,0,1,0,0,0,1 @ F,0,0,1,0,0,0,1 @ F,0,0,1,0,0,0,1"
       radius="0"
       unit="px"
       method="auto"
       mode="F"
       chamfer_steps="1"
       flexible="false"
       use_knot_distance="true"
       apply_no_radius="true"
       apply_with_radius="true"
       only_selected="false"
       hide_knots="false" /></defs><g
     inkscape:groupmode="layer"
     id="g13"
     inkscape:label="Layer 3"
     style="fill:#000000;fill-opacity:1"
     inkscape:export-filename="g13.svg"
     inkscape:export-xdpi="96"
     inkscape:export-ydpi="96"
     transform="translate(-9.7911823,-15.543162)"><g
       id="g14"
       style="fill:#000000;fill-opacity:1"><path
         style="fill:#000000;fill-opacity:1;stroke:none;stroke-width:3.49999;stroke-linecap:round;stroke-linejoin:round;stroke-opacity:1"
         d="m 48.15832,135.61989 -20.598691,9.66008 c -5.43407,3.44134 -11.842887,7.36607 -14.442761,13.54305 -0.52401,2.17507 -0.753662,4.15391 -0.520886,5.82446 1.736551,4.59831 5.25842,4.48989 8.28683,5.68239 l 7.339763,0.28412 c 7.671237,-1.42611 15.342475,-2.96206 23.013712,-4.64062 13.448341,-3.63425 26.896682,-7.2657 40.345023,-11.88568 l 31.63201,-8.47625 -1.13647,-5.87181 -12.02775,3.07797 c -8.0055,1.55619 -16.114411,4.04312 -24.244893,6.72417 l -27.030826,8.11701 a 124.95391,124.95391 166.12101 0 1 -12.001022,2.96529 l -17.460656,3.40781 c -3.527791,0.48118 -7.500743,1.24853 -10.55979,-0.75765 -1.26424,-4.99205 4.764252,-6.74289 7.529177,-9.9442 5.054157,-3.89037 11.160815,-5.85116 16.905132,-8.47624 z"
         id="path12"
         sodipodi:nodetypes="cccccccccccccccccc"
         inkscape:path-effect="#path-effect14"
         inkscape:original-d="m 48.15832,135.61989 -20.598691,9.66008 c -5.43407,3.44134 -11.842887,7.36607 -14.442761,13.54305 -0.52401,2.17507 -0.753662,4.15391 -0.520886,5.82446 1.736551,4.59831 5.25842,4.48989 8.28683,5.68239 l 7.339763,0.28412 c 7.671237,-1.42611 15.342475,-2.96206 23.013712,-4.64062 13.448341,-3.63425 26.896682,-7.2657 40.345023,-11.88568 l 31.63201,-8.47625 -1.13647,-5.87181 -12.02775,3.07797 c -8.0055,1.55619 -16.114411,4.04312 -24.244893,6.72417 l -32.957907,9.89684 -23.534597,4.59327 c -3.527791,0.48118 -7.500743,1.24853 -10.55979,-0.75765 -1.26424,-4.99205 4.764252,-6.74289 7.529177,-9.9442 5.054157,-3.89037 11.160815,-5.85116 16.905132,-8.47624 z" /><path
         style="fill:#000000;fill-opacity:1;stroke:none;stroke-width:3.49999;stroke-linecap:round;stroke-linejoin:round;stroke-opacity:1"
         d="m 158.72831,132.54193 c 5.23657,-0.46195 10.55014,-1.15488 15.67395,-1.27854 l 10.13361,0.18941 c 12.79896,1.4398 16.2832,3.76071 19.9831,6.06123 2.62734,3.20344 1.64047,5.00782 0.42617,6.72417 -1.79481,2.73113 -4.45295,4.27518 -7.24505,5.63504 -4.46257,2.45236 -8.91137,5.06998 -13.4957,6.06122 -6.04544,1.73401 -12.09088,3.10984 -18.13632,3.83562 l -23.01371,3.5515 c -6.30076,1.24783 -12.61115,2.55339 -19.03603,4.54592 -7.21753,2.37427 -14.16719,5.20773 -20.50398,9.09184 -5.738693,4.11608 -9.504075,9.21949 -11.128034,13.35363 0,0 -1.681532,2.21943 -3.693557,1.65737 -2.012025,-0.56206 -2.083546,-3.59885 -2.083546,-3.59885 1.195233,-2.55864 2.739038,-5.2722 5.066805,-8.33419 2.439006,-3.24898 5.438943,-5.85691 8.760362,-8.09742 10.0502,-6.09457 15.82644,-7.78163 21.97194,-9.84948 7.01566,-2.45332 13.94586,-3.80071 20.83546,-4.8774 6.95462,-1.47322 14.32131,-2.25964 21.64046,-3.12531 6.01387,-0.90351 12.02775,-2.57374 18.04162,-4.07239 6.12151,-2.41699 12.02538,-4.98466 16.5263,-8.5236 -2.97295,-1.7641 -6.65477,-2.70117 -10.37037,-3.59885 -5.93067,-0.95405 -11.98809,-0.76727 -18.04162,-0.61559 l -9.23389,0.99442 z"
         id="path13"
         sodipodi:nodetypes="cccccccccccczcccccccccccc" /><path
         id="path11"
         style="display:inline;fill:#000000;fill-opacity:1;stroke:#009df4;stroke-width:3;stroke-linecap:square;stroke-opacity:0"
         d="M 104.13473,17.177246 82.437345,68.374121 c 6.605269,7.373549 14.143741,14.105544 22.769155,20.090247 l -7.563881,-3.464905 a 65.200786,65.200786 0 0 1 -5.497339,-2.84117 l -3.969784,-2.296501 c -0.98841,-0.571831 -2.390543,-1.740016 -3.16208,-2.581755 -2.493602,-2.720491 -5.487053,-5.486489 -8.792229,-7.320483 -1.259091,-0.698651 -3.462146,-1.492482 -4.842598,-1.90531 -3.843564,-1.149428 -7.589889,-1.909469 -11.107849,-1.756482 -0.399222,-1.753579 -1.230443,-3.60341 -2.509408,-4.163053 0.06574,0.696958 -0.07033,1.312792 0.130225,1.919779 -0.522661,-0.645448 -1.555391,-1.23996 -2.241207,-1.841748 0.402001,0.985354 0.07656,2.074623 1.272274,2.94659 -2.764124,-1.387292 -5.568349,-2.480154 -8.52041,-2.489254 1.220615,1.164061 2.261728,2.867094 3.116088,5.12992 0.252064,0.667605 0.596506,1.772314 0.796851,2.457214 0.516942,1.767219 0.986378,3.657583 1.539441,7.068819 0.187556,1.15683 0.545498,3.022884 0.922941,4.132048 0.400937,1.178204 0.889712,2.331725 1.475362,3.457153 -0.550413,-0.688805 -1.132218,-1.29933 -1.808158,-1.674316 -0.423847,3.120652 -0.308541,6.230191 2.268595,9.288322 -0.874559,0.366871 -1.667127,-0.115853 -2.603459,-0.984436 0.205423,2.996309 1.85813,5.278368 5.212085,5.991365 -0.214868,1.693149 -1.821251,2.421256 -2.919718,3.230815 1.517981,-0.15147 2.978552,-0.67866 4.441073,-1.478984 0.429301,-0.234923 1.071991,-0.189812 1.447973,0.123507 L 63.762,100.63727 a 1.5569037,1.5569037 0 0 1 0.546219,1.40353 l -0.353983,2.63498 a 5.581771,5.581771 0 0 1 -0.609265,1.88826 l -20.753256,38.82295 -25.244453,45.92846 c -0.186342,0.33903 -0.642839,0.68468 -1.016476,0.78497 -2.106349,0.5654 -3.855366,1.3761 -5.671488,2.66495 1.972671,-0.30732 3.738132,-0.85652 5.279264,-0.82682 -0.652717,0.63505 -1.020144,1.39682 -1.272791,2.20968 1.322487,-0.52627 2.113943,-1.10527 3.01377,-1.6738 -0.984784,2.16529 -1.070432,4.33044 -1.138432,6.49573 1.415434,-2.22987 2.347349,-4.66685 3.22616,-7.12669 0.179311,-0.50191 0.706676,-1.10779 1.179773,-1.35289 21.330938,-11.05134 41.597086,-22.71963 65.374304,-26.67848 -1.037106,-9.85249 -0.969108,-19.94779 1.875338,-29.13104 0.16826,0.90689 0.462904,1.75961 1.071252,2.47789 0.413477,-0.93873 0.531431,-1.91062 0.669727,-2.87993 0.431942,-0.005 0.534956,0.6769 0.791166,1.05265 0.309855,-0.89788 0.292389,-2.10134 0.0124,-3.06131 0.732705,0.78326 1.923634,1.33745 3.01377,1.942 -0.637895,-1.18771 -1.375506,-2.29929 -2.545064,-3.08043 0.389995,-0.37417 0.729392,0.01 1.091406,0.0553 -0.344641,-0.65242 -0.733497,-1.25551 -1.35909,-1.59577 2.497344,-3.65465 5.100017,-7.53221 9.777179,-8.50491 7.4531,-1.56488 11.58434,0.75783 15.80421,6.49573 1.85953,2.66754 2.84635,5.60086 3.81165,8.54057 0.18789,0.57219 0.27962,1.52358 0.30179,2.12493 0.0225,0.60907 0.12803,1.24436 0.37362,1.92443 -0.009,-0.84627 0.34769,-1.51771 0.80357,-2.1425 1.62406,9.74434 3.50689,16.66681 1.4733,26.48572 7.16668,0.82241 13.97507,3.12255 20.75273,5.50922 3.51468,1.23765 9.14946,3.40708 12.54911,4.93252 11.34874,5.09224 22.33554,10.69721 32.93339,16.85323 0.30882,0.17939 0.75581,0.53807 0.98754,0.80977 0.88146,1.03355 1.56997,2.0834 1.97559,3.03082 0.0695,-0.40583 -0.20921,-0.89791 -0.0879,-2.23914 0.24229,0.39228 0.87252,0.59028 1.33945,0.87024 -0.29003,-0.74556 -0.668,-1.49989 -1.27228,-2.27687 1.18071,0.52657 2.44383,0.59896 3.68298,0.80409 -1.03905,-0.97836 -2.47736,-1.71728 -3.90518,-2.46238 -0.50748,-0.26483 -1.13576,-0.89305 -1.40664,-1.39734 l -12.09952,-22.52575 -10.51098,-8.59948 a 60.665959,60.665959 0 0 0 -7.35356,-5.15782 l -13.2085,-7.87342 18.71101,6.75669 c 0.31787,0.11479 0.73885,0.42795 0.94361,0.6966 0.87645,1.14996 1.78197,2.29281 2.04277,3.59668 0.378,-1.24582 0.16762,-2.07145 -0.0667,-2.87993 1.0006,0.22088 1.77843,0.94316 2.61172,1.54048 -0.24269,-0.91523 -0.58678,-1.83034 -1.27279,-2.74557 1.25556,0.51411 2.58878,0.40988 3.88452,0.60254 -1.21284,-0.72233 -2.49625,-1.36054 -3.86178,-1.89962 -0.45347,-0.17902 -1.01083,-0.65987 -1.23868,-1.09089 l -23.09575,-43.68881 c -0.16272,-0.81359 -0.284,-1.12705 -0.47077,-2.22932 -0.0572,-0.33741 -0.0224,-0.87875 0.0703,-1.20819 l 0.51624,-1.83555 a 1.1425006,1.1425006 0 0 1 0.76275,-0.78187 l 2.44016,-0.75344 c 0.327,-0.10096 0.83893,-0.31018 1.12654,-0.49506 2.11153,-1.357287 6.6717,-5.372735 6.75463,-5.460646 1.02028,-1.082291 1.5085,-1.380216 2.44378,-1.636593 -1.00889,0.07435 -1.7643,-0.709315 -3.50986,0.668176 2.89568,-2.530107 1.75157,-2.742331 3.50418,-3.882967 -0.81612,0.10244 -1.53638,-0.02592 -2.55747,0.568441 4.43165,-5.352217 3.20058,-4.918469 3.88297,-6.439917 2.10133,-3.854598 3.22006,-7.026061 4.39404,-10.235551 0.15407,-0.421196 0.55626,-0.998304 0.91261,-1.270207 1.38666,-1.05805 3.2575,-2.305134 4.37131,-5.435843 -2.87974,0.548594 -4.71677,2.075668 -4.99918,2.683557 0.29153,-1.181184 0.18431,-2.176053 -0.13281,-3.073198 -0.85065,0.780831 -1.42917,1.697386 -1.74408,2.746086 -0.20913,-0.493191 -0.33882,-1.001875 -0.97462,-1.409733 -0.36997,0.691014 -0.5276,1.381727 -0.40669,2.072741 -9.96324,0.756558 -13.80711,-0.363794 -19.5094,0.852662 -3.26551,1.12835 -6.45077,2.406979 -9.47023,3.996655 -0.84527,0.445019 -2.18793,0.449167 -3.01738,-0.0248 l -0.54777,-0.313159 c -0.33266,-0.190092 -0.74271,-0.619563 -0.91416,-0.960148 -4.20095,-8.345469 -9.42609,-20.224939 -11.2758,-24.474475 -0.38127,-0.875942 0.0288,-1.882281 0.89194,-2.291333 1.01641,-0.481671 1.53616,-0.836305 0.69556,-0.884184 -0.95293,-0.05428 -1.45617,-0.621579 -1.19837,-1.536857 0.43983,-1.561585 0.99218,-3.675228 0.99218,-3.675228 l -2.40502,3.522782 c 0,0 -0.48726,-2.270228 -0.60048,-2.336808 -0.11012,-0.06476 -0.40718,2.32771 -0.48937,2.338876 h -5.2e-4 c -2.4e-4,-6.4e-5 -10e-4,-4.14e-4 -0.002,-5.17e-4 -4.9e-4,-2.91e-4 -0.002,-0.0016 -0.002,-0.0021 -4.6e-4,-5.64e-4 -0.001,-0.0013 -0.002,-0.0021 0,0 -6.83987,-15.81034 -11.71711,-27.304277 z m 35.18958,81.550578 c 0.0556,-0.0012 0.10878,3.61e-4 0.15865,0.0057 1.2522,0.133679 1.91916,0.796224 1.55649,2.388486 -0.0897,0.39406 -0.48683,0.87228 -0.8325,1.08211 l -11.72952,7.12049 11.00656,6.80372 c 0.65261,0.40339 1.40437,1.322 1.48777,2.0836 0.10003,0.91316 -0.15452,1.64432 -1.37356,1.88102 -0.56659,0.11002 -1.44027,-0.16621 -1.93167,-0.47077 l -13.4953,-8.36383 c -0.46971,-0.29112 -1.22988,-0.80955 -1.47174,-1.30173 -0.29866,-0.60776 -0.28306,-1.28798 -0.0181,-1.82056 0.24252,-0.48746 1.06301,-0.94041 1.54409,-1.21233 l 13.8989,-7.855342 c 0.30585,-0.172875 0.81103,-0.332019 1.19992,-0.340548 z m -65.209454,0.132808 c 0.423966,0.0019 0.969811,0.169143 1.296045,0.374138 v 5.16e-4 l 11.971879,7.522534 c 0.902545,0.56713 2.303008,1.71067 2.390552,2.74299 0.0099,0.11649 0.01409,0.2342 0.01189,0.3514 -0.02003,1.06622 -1.635777,2.18499 -2.602425,2.74298 l -12.547038,7.24297 a 1.9291473,1.9291473 0 0 1 -2.673738,-0.77618 l -0.01034,-0.0202 a 2.1010202,2.1010202 0 0 1 0.806152,-2.79104 l 11.638049,-6.75877 -11.310937,-6.96288 c -0.391887,-0.24124 -0.860914,-0.77965 -0.993738,-1.22008 -0.356705,-1.18279 -0.218744,-2.178678 1.850016,-2.438609 0.05458,-0.0069 0.113066,-0.01009 0.173633,-0.0098 z m 35.986954,11.810128 c 0.0627,0.003 0.12622,0.01 0.19017,0.0207 7.06717,1.17794 4.66027,8.37088 2.2474,9.88416 -1.87315,1.36273 -3.94511,1.9047 -6.52931,0.33434 -0.92434,0.8947 -2.05121,1.61295 -4.38682,1.27279 -3.339958,-0.333 -4.371031,-2.72563 -4.419881,-5.99395 0.183697,-3.67028 2.179787,-4.92307 4.620911,-5.29218 0.91719,-0.13868 1.77136,0.61431 1.89135,1.53479 l 0.0677,0.51728 a 1.6311563,1.6311563 0 0 1 -1.45521,1.834 l -0.15038,0.015 c -0.47268,0.0473 -0.92695,0.46397 -0.99115,0.93431 -0.0686,0.50252 -0.10768,1.02109 -0.0393,1.47382 0.0697,0.46132 0.64647,0.86594 1.07281,0.96014 a 1.1747827,1.1747827 0 0 0 1.26555,-0.55138 l 0.0134,-0.0222 a 3.0703087,3.0703087 0 0 0 0.46509,-1.54048 1.930372,1.930372 0 0 1 1.98334,-1.93942 1.9052838,1.9052838 0 0 1 1.97094,1.80868 c 0.008,0.11601 0.005,0.40031 0.0274,0.73691 0.0706,1.08334 1.88417,1.40464 2.50889,0.43821 0.0697,-0.10777 0.13595,-0.2181 0.19895,-0.32918 0.58278,-1.02714 0.098,-2.04783 -0.77618,-2.13113 a 1.7197301,1.7197301 0 0 1 -1.55494,-1.78439 l 0.0186,-0.44338 c 0.0412,-0.97246 0.82032,-1.78066 1.76062,-1.73737 z" /></g></g></svg>
